<svg xmlns="http://www.w3.org/2000/svg" width="25.625" height="20" viewBox="0 0 25.625 20">
  <g id="_002-money" data-name="002-money" transform="translate(0 -5.818)">
    <g id="Group_48" data-name="Group 48" transform="translate(0 13.943)">
      <g id="Group_47" data-name="Group 47">
        <path id="Path_20" data-name="Path 20" d="M19.308,22.626a3.431,3.431,0,0,1-6.116,0H0V34.5H19.466a4.368,4.368,0,0,1,2.409-7.084V22.626Zm-8.37,9.688a3.75,3.75,0,1,1,3.75-3.75A3.751,3.751,0,0,1,10.937,32.314Z" transform="translate(0 -22.626)" fill="#053eff"/>
      </g>
    </g>
    <g id="Group_50" data-name="Group 50" transform="translate(19.999 20.191)">
      <g id="Group_49" data-name="Group 49">
        <circle id="Ellipse_5" data-name="Ellipse 5" cx="2.812" cy="2.812" r="2.812" fill="#053eff"/>
      </g>
    </g>
    <g id="Group_52" data-name="Group 52" transform="translate(14.375 10.505)">
      <g id="Group_51" data-name="Group 51">
        <circle id="Ellipse_6" data-name="Ellipse 6" cx="1.875" cy="1.875" r="1.875" fill="#053eff"/>
      </g>
    </g>
    <g id="Group_54" data-name="Group 54" transform="translate(2.913 5.818)">
      <g id="Group_53" data-name="Group 53">
        <path id="Path_21" data-name="Path 21" d="M7.211,5.818,6.026,12.381h9.9a3.437,3.437,0,1,1,6.875,0h3.75v6.3a4.438,4.438,0,0,1,.547.114L28.738,9.7Z" transform="translate(-6.026 -5.818)" fill="#053eff"/>
      </g>
    </g>
  </g>
</svg>
