<svg xmlns="http://www.w3.org/2000/svg" width="44.444" height="40" viewBox="0 0 44.444 40">
  <g id="Icon_material-camera-alt" data-name="Icon material-camera-alt" transform="translate(-3 -3)">
    <path id="Path_515" data-name="Path 515" d="M27.422,20.311A7.111,7.111,0,1,1,20.311,13.2,7.111,7.111,0,0,1,27.422,20.311Z" transform="translate(4.911 4.911)" fill="#053eff"/>
    <path id="Path_516" data-name="Path 516" d="M18.556,3,14.489,7.444H7.444A4.458,4.458,0,0,0,3,11.889V38.556A4.458,4.458,0,0,0,7.444,43H43a4.458,4.458,0,0,0,4.444-4.444V11.889A4.458,4.458,0,0,0,43,7.444H35.956L31.889,3Zm6.667,33.333A11.111,11.111,0,1,1,36.333,25.222,11.115,11.115,0,0,1,25.222,36.333Z" transform="translate(0 0)" fill="#053eff"/>
  </g>
</svg>
