<svg xmlns="http://www.w3.org/2000/svg" width="12.284" height="17" viewBox="0 0 12.284 17">
  <path id="Icon_metro-bitcoin" data-name="Icon metro-bitcoin" d="M19.3,9.638a2.422,2.422,0,0,1-1.338,2.636,3.068,3.068,0,0,1,1.788,1.052,3.028,3.028,0,0,1,.46,2.186,3.862,3.862,0,0,1-.332,1.277,2.819,2.819,0,0,1-.659.909,3.353,3.353,0,0,1-.991.6,6.038,6.038,0,0,1-1.241.352A12.31,12.31,0,0,1,15.5,18.8v2.605H13.925V18.843q-.817,0-1.246-.01v2.575H11.1V18.8q-.184,0-.552-.005t-.562-.005H7.948l.317-1.87H9.4a.546.546,0,0,0,.593-.521V12.294h.163a1.039,1.039,0,0,0-.163-.01V9.352a.812.812,0,0,0-.909-.695H7.948V6.981l2.166.01q.654,0,.991-.01V4.407h1.573V6.93q.838-.02,1.246-.02v-2.5H15.5V6.981a9.115,9.115,0,0,1,1.43.23,4.646,4.646,0,0,1,1.154.46,2.34,2.34,0,0,1,.843.8,2.607,2.607,0,0,1,.373,1.17Zm-2.2,5.568a1.363,1.363,0,0,0-.153-.654,1.532,1.532,0,0,0-.378-.47,1.94,1.94,0,0,0-.587-.312,4.96,4.96,0,0,0-.669-.189,6.041,6.041,0,0,0-.756-.092q-.449-.031-.7-.031t-.659.01q-.4.01-.485.01v3.453l.378.005q.3.005.49.005t.541-.015q.347-.015.6-.041T15.3,16.8a3.91,3.91,0,0,0,.567-.143,3.471,3.471,0,0,0,.485-.215,1.416,1.416,0,0,0,.4-.306,1.444,1.444,0,0,0,.25-.409,1.354,1.354,0,0,0,.1-.521Zm-.725-4.863a1.341,1.341,0,0,0-.128-.6,1.424,1.424,0,0,0-.312-.429,1.528,1.528,0,0,0-.49-.286,3.511,3.511,0,0,0-.562-.169,5.625,5.625,0,0,0-.628-.082q-.373-.031-.593-.026l-.552.01-.4.005v3.136l.352.005q.3.005.475,0t.511-.02a4.321,4.321,0,0,0,.562-.056q.225-.041.526-.112a1.732,1.732,0,0,0,.5-.189,2.805,2.805,0,0,0,.378-.276.983.983,0,0,0,.276-.393,1.417,1.417,0,0,0,.092-.521Z" transform="translate(-7.948 -4.407)"/>
</svg>
