<svg xmlns="http://www.w3.org/2000/svg" width="21.666" height="20" viewBox="0 0 21.666 20">
  <g id="Icon_ionic-ios-wallet" data-name="Icon ionic-ios-wallet" transform="translate(-3.375 -4.499)">
    <path id="Path_60" data-name="Path 60" d="M21.916,11.25H6.5a3.127,3.127,0,0,0-3.125,3.125v8.75A3.127,3.127,0,0,0,6.5,26.25H21.916a3.127,3.127,0,0,0,3.125-3.125v-8.75A3.127,3.127,0,0,0,21.916,11.25Z" transform="translate(0 -1.75)" fill="#053eff"/>
    <path id="Path_61" data-name="Path 61" d="M19.026,4.552,6.792,6.942C5.854,7.151,4.5,8.093,4.5,9.239a3.282,3.282,0,0,1,2.552-.99H22V7.182a2.991,2.991,0,0,0-.724-1.958h0A2.463,2.463,0,0,0,19.026,4.552Z" transform="translate(-0.292)" fill="#053eff"/>
  </g>
</svg>
