<svg xmlns="http://www.w3.org/2000/svg" width="28.572" height="20" viewBox="0 0 28.572 20">
  <path id="Icon_awesome-money-bill-wave" data-name="Icon awesome-money-bill-wave" d="M27.73,3.253a13.22,13.22,0,0,0-5.2-1c-5.5,0-11,2.783-16.5,2.783A13.545,13.545,0,0,1,1.9,4.421a1.526,1.526,0,0,0-.462-.072A1.421,1.421,0,0,0,0,5.768V19.932a1.42,1.42,0,0,0,.841,1.315,13.213,13.213,0,0,0,5.2,1c5.5,0,11-2.783,16.5-2.783a13.545,13.545,0,0,1,4.136.612,1.526,1.526,0,0,0,.462.072,1.421,1.421,0,0,0,1.44-1.42V4.568A1.421,1.421,0,0,0,27.73,3.253ZM2.143,6.724a15.536,15.536,0,0,0,2.8.4,2.86,2.86,0,0,1-2.8,2.3Zm0,12.723V17.314a2.856,2.856,0,0,1,2.844,2.741A10.785,10.785,0,0,1,2.143,19.447Zm12.143-2.912c-1.973,0-3.571-1.919-3.571-4.286s1.6-4.286,3.571-4.286,3.571,1.919,3.571,4.286S16.258,16.536,14.286,16.536Zm12.143,1.24A15.35,15.35,0,0,0,24,17.4a2.851,2.851,0,0,1,2.425-2.2Zm0-10.541a2.851,2.851,0,0,1-2.492-2.748,10.731,10.731,0,0,1,2.492.565Z" transform="translate(0 -2.25)" fill="#053eff"/>
</svg>
