<svg xmlns="http://www.w3.org/2000/svg" width="15" height="15" viewBox="0 0 15 15">
  <path id="Icon_awesome-globe-africa" data-name="Icon awesome-globe-africa" d="M7.5.563a7.5,7.5,0,1,0,7.5,7.5A7.5,7.5,0,0,0,7.5.563ZM12.339,7.08v.21a.469.469,0,0,1-.259.419l-.465.233a.468.468,0,0,1-.47-.029l-.551-.367a.469.469,0,0,0-.408-.055l-.08.027a.468.468,0,0,0-.242.7l.4.6a.468.468,0,0,0,.39.209H10.9a.469.469,0,0,1,.469.469v.343a.469.469,0,0,1-.094.281l-.567.755a.471.471,0,0,0-.086.194l-.13.69a.47.47,0,0,1-.144.259,4.827,4.827,0,0,0-.756.882L9.2,13.5a.839.839,0,0,1-1.449-.09A2.386,2.386,0,0,1,7.5,12.338v-.9a.469.469,0,0,0-.469-.469H6.249A1.652,1.652,0,0,1,4.6,9.314V8.888a1.653,1.653,0,0,1,.661-1.322l.834-.626a1.653,1.653,0,0,1,.991-.331H7.11a1.649,1.649,0,0,1,.739.174l.445.223a.468.468,0,0,0,.358.025l1.431-.477a.469.469,0,0,0-.148-.913H9.629A.469.469,0,0,1,9.3,5.506L9.088,5.3a.469.469,0,0,0-.331-.137H6.033a.469.469,0,0,1-.469-.469V4.557A.469.469,0,0,1,5.92,4.1l.437-.109A.47.47,0,0,0,6.633,3.8l.244-.366a.468.468,0,0,1,.39-.209H8a.469.469,0,0,0,.469-.469V2.1a6.057,6.057,0,0,1,4.9,4.512h-.557A.469.469,0,0,0,12.339,7.08Z" transform="translate(0 -0.563)" opacity="0.25"/>
</svg>
