<svg xmlns="http://www.w3.org/2000/svg" xmlns:xlink="http://www.w3.org/1999/xlink" width="30" height="30" viewBox="0 0 30 30">
  <defs>
    <clipPath id="clip-path">
      <rect id="Rectangle_5" data-name="Rectangle 5" width="30" height="30" transform="translate(50 198)" fill="#101010"/>
    </clipPath>
  </defs>
  <g id="Mask_Group_3" data-name="Mask Group 3" transform="translate(-50 -198)" clip-path="url(#clip-path)">
    <g id="_004-wallet" data-name="004-wallet" transform="translate(50 198)">
      <g id="Group_20" data-name="Group 20">
        <g id="Group_19" data-name="Group 19">
          <circle id="Ellipse_1" data-name="Ellipse 1" cx="3.879" cy="3.879" r="3.879" transform="translate(15.634 0)" fill="#f3ab02"/>
        </g>
      </g>
      <g id="Group_22" data-name="Group 22">
        <g id="Group_21" data-name="Group 21">
          <path id="Path_6" data-name="Path 6" d="M10.694,4.405A3.873,3.873,0,0,0,6.846,8.77h7.7a3.873,3.873,0,0,0-3.848-4.365Z" fill="#053eff"/>
        </g>
      </g>
      <g id="Group_24" data-name="Group 24">
        <g id="Group_23" data-name="Group 23">
          <path id="Path_7" data-name="Path 7" d="M18.336,15.239h8.35V12.031A1.428,1.428,0,0,0,25.258,10.6H2.728A1.428,1.428,0,0,0,1.3,12.031V28.572A1.428,1.428,0,0,0,2.728,30H25.258a1.428,1.428,0,0,0,1.428-1.428V25.364h-8.35a3.123,3.123,0,0,1-3.12-3.12V18.359A3.123,3.123,0,0,1,18.336,15.239Z" fill="#053eff"/>
        </g>
      </g>
      <g id="Group_26" data-name="Group 26">
        <g id="Group_25" data-name="Group 25">
          <path id="Path_8" data-name="Path 8" d="M27.53,17.189H18.336a1.17,1.17,0,0,0-1.17,1.17v3.885a1.17,1.17,0,0,0,1.17,1.17H27.53a1.17,1.17,0,0,0,1.17-1.17V18.359A1.17,1.17,0,0,0,27.53,17.189Zm-7.259,4.485A1.373,1.373,0,1,1,21.645,20.3,1.373,1.373,0,0,1,20.272,21.675Z" fill="#f3ab02"/>
        </g>
      </g>
    </g>
  </g>
</svg>
