<svg xmlns="http://www.w3.org/2000/svg" width="42.857" height="30" viewBox="0 0 42.857 30">
  <path id="Icon_awesome-user-friends" data-name="Icon awesome-user-friends" d="M12.857,17.25a7.5,7.5,0,1,0-7.5-7.5A7.5,7.5,0,0,0,12.857,17.25ZM18,19.393h-.556a10.355,10.355,0,0,1-9.174,0H7.714A7.716,7.716,0,0,0,0,27.107v1.929A3.215,3.215,0,0,0,3.214,32.25H22.5a3.215,3.215,0,0,0,3.214-3.214V27.107A7.716,7.716,0,0,0,18,19.393ZM32.143,17.25a6.429,6.429,0,1,0-6.429-6.429A6.43,6.43,0,0,0,32.143,17.25Zm3.214,2.143H35.1a8.444,8.444,0,0,1-5.92,0h-.254a7.438,7.438,0,0,0-3.73,1.031,9.8,9.8,0,0,1,2.658,6.683v2.571c0,.147-.033.288-.04.429H39.643a3.215,3.215,0,0,0,3.214-3.214,7.5,7.5,0,0,0-7.5-7.5Z" transform="translate(0 -2.25)" fill="#454391"/>
</svg>
