<svg xmlns="http://www.w3.org/2000/svg" width="17.143" height="12" viewBox="0 0 17.143 12">
  <path id="Icon_awesome-money-bill-wave" data-name="Icon awesome-money-bill-wave" d="M16.638,2.852a7.932,7.932,0,0,0-3.118-.6c-3.3,0-6.6,1.67-9.9,1.67a8.127,8.127,0,0,1-2.482-.368.916.916,0,0,0-.277-.043A.852.852,0,0,0,0,4.361v8.5a.852.852,0,0,0,.5.789,7.928,7.928,0,0,0,3.118.6c3.3,0,6.6-1.67,9.9-1.67A8.127,8.127,0,0,1,16,12.947a.916.916,0,0,0,.277.043.852.852,0,0,0,.864-.852v-8.5A.853.853,0,0,0,16.638,2.852ZM1.286,4.934a9.321,9.321,0,0,0,1.68.239,1.716,1.716,0,0,1-1.68,1.381Zm0,7.634v-1.28a1.714,1.714,0,0,1,1.707,1.645A6.471,6.471,0,0,1,1.286,12.568Zm7.286-1.747A2.387,2.387,0,0,1,6.429,8.25,2.387,2.387,0,0,1,8.571,5.679,2.387,2.387,0,0,1,10.714,8.25,2.387,2.387,0,0,1,8.571,10.821Zm7.286.744a9.21,9.21,0,0,0-1.455-.226,1.711,1.711,0,0,1,1.455-1.32Zm0-6.324a1.711,1.711,0,0,1-1.495-1.649,6.439,6.439,0,0,1,1.495.339Z" transform="translate(0 -2.25)"/>
</svg>
