<svg xmlns="http://www.w3.org/2000/svg" width="18.33" height="20" viewBox="0 0 18.33 20">
  <path id="Icon_ionic-ios-moon" data-name="Icon ionic-ios-moon" d="M22.362,19.611c-.151.005-.3.01-.453.01a9.181,9.181,0,0,1-6.6-2.781,9.487,9.487,0,0,1-2.734-6.707,9.606,9.606,0,0,1,.911-4.1,13.574,13.574,0,0,1,.708-1.219.205.205,0,0,0-.2-.318,10.026,10.026,0,0,0-8.363,9.946,9.975,9.975,0,0,0,9.9,10.05,9.817,9.817,0,0,0,7.546-3.546,9.512,9.512,0,0,0,.854-1.135.21.21,0,0,0-.214-.318A8.893,8.893,0,0,1,22.362,19.611Z" transform="translate(-5.625 -4.496)" fill="#141414" opacity="0.3"/>
</svg>
