<svg xmlns="http://www.w3.org/2000/svg" xmlns:xlink="http://www.w3.org/1999/xlink" width="30" height="30" viewBox="0 0 30 30">
  <defs>
    <clipPath id="clip-path">
      <rect id="Rectangle_5" data-name="Rectangle 5" width="30" height="30" transform="translate(50 378)" fill="#101010"/>
    </clipPath>
  </defs>
  <g id="Mask_Group_5" data-name="Mask Group 5" transform="translate(-50 -378)" clip-path="url(#clip-path)">
    <g id="_001-user-options" data-name="001-user-options" transform="translate(50 378)">
      <path id="Path_11" data-name="Path 11" d="M29.766,15.2,27.4,11.8c-.515-4.343-2.876-7.723-5.827-8.262a2.229,2.229,0,0,1-.488,2.24A2.242,2.242,0,0,1,21.331,8.4l-.892,1.49a2.234,2.234,0,0,1-2.432,1.028,2.235,2.235,0,0,1-2.151,1.526h0l-1.737-.026c-.031,0-.059-.007-.09-.009-.016.2-.023.411-.029.617a2.418,2.418,0,0,1,.064,2.06,12.961,12.961,0,0,0,1.467,4.945l-2.906,2.769a1.438,1.438,0,0,0,.3,2.3l7.8,4.278a1.437,1.437,0,0,0,2.128-1.261V23.21c1.925-.943,3.465-3.142,4.2-5.951h1.64A1.31,1.31,0,0,0,29.766,15.2Z" fill="#053eff"/>
      <path id="Path_12" data-name="Path 12" d="M12.314,13.358l-.8-.476a5.146,5.146,0,0,0,0-1.3l.653-.364a2.246,2.246,0,0,1-.162-.386,2.247,2.247,0,0,1-1.057-.04A2.235,2.235,0,0,1,9.609,9.727L8.77,8.216a2.213,2.213,0,0,1-.254-.755l-.044-.021.014-.953A.9.9,0,0,0,7.6,5.572L5.413,5.539H5.4a.9.9,0,0,0-.9.885l-.014.949a5.029,5.029,0,0,0-1.144.617l-.8-.477a.893.893,0,0,0-.46-.127.9.9,0,0,0-.776.439L.186,9.7A.9.9,0,0,0,.5,10.937l.8.476a5.074,5.074,0,0,0,0,1.3l-.828.462A.9.9,0,0,0,.114,14.4l1.063,1.91a.9.9,0,0,0,.541.427.889.889,0,0,0,.684-.079l.833-.463a4.963,4.963,0,0,0,.518.385,4.844,4.844,0,0,0,.585.274l-.015.954a.9.9,0,0,0,.886.914l2.186.033h.017a.9.9,0,0,0,.9-.885l.014-.949A5.036,5.036,0,0,0,9.471,16.3l.8.476a.9.9,0,0,0,1.235-.311l1.123-1.876A.9.9,0,0,0,12.314,13.358Zm-3.066.49A3.331,3.331,0,0,1,6.4,15.462h0a3.315,3.315,0,1,1,2.846-1.614Z" fill="#f3ab02"/>
      <path id="Path_13" data-name="Path 13" d="M7.584,10.174a2.3,2.3,0,1,0-2.359,3.947,2.345,2.345,0,0,0,3.154-.794,2.3,2.3,0,0,0-.8-3.153Z" fill="#053eff"/>
      <path id="Path_14" data-name="Path 14" d="M10.1,7.472l.842,1.517a.722.722,0,0,0,.429.341.765.765,0,0,0,.2.026.719.719,0,0,0,.348-.089l.662-.369a4.433,4.433,0,0,0,.411.306,4.183,4.183,0,0,0,.464.217l-.012.758a.715.715,0,0,0,.7.726l1.737.025h.011a.718.718,0,0,0,.5-.2.706.706,0,0,0,.215-.5l.012-.753a4.008,4.008,0,0,0,.909-.489l.631.378a.715.715,0,0,0,.982-.248l.891-1.489a.715.715,0,0,0-.247-.981l-.632-.378a3.926,3.926,0,0,0,0-1.033l.658-.366a.707.707,0,0,0,.34-.428.722.722,0,0,0-.063-.543l-.845-1.518a.718.718,0,0,0-.625-.366.7.7,0,0,0-.347.091l-.661.368a4.019,4.019,0,0,0-.411-.3,4.029,4.029,0,0,0-.465-.219l.012-.757a.717.717,0,0,0-.7-.728L14.3.437h-.01a.716.716,0,0,0-.716.7l-.01.754a4.023,4.023,0,0,0-.911.488l-.63-.377a.713.713,0,0,0-.98.247l-.891,1.49a.716.716,0,0,0,.246.981l.631.377a4.076,4.076,0,0,0,0,1.033l-.659.366A.714.714,0,0,0,10.1,7.472Zm3.3-2.8a1.971,1.971,0,1,1,.679,2.7A1.972,1.972,0,0,1,13.4,4.671Z" fill="#053eff"/>
    </g>
  </g>
</svg>
