<svg xmlns="http://www.w3.org/2000/svg" xmlns:xlink="http://www.w3.org/1999/xlink" width="30" height="30" viewBox="0 0 30 30">
  <defs>
    <clipPath id="clip-path">
      <rect id="Rectangle_5" data-name="Rectangle 5" width="30" height="30" transform="translate(50 258)" fill="#101010"/>
    </clipPath>
  </defs>
  <g id="Mask_Group_4" data-name="Mask Group 4" transform="translate(-50 -258)" clip-path="url(#clip-path)">
    <g id="_002-money" data-name="002-money" transform="translate(50 258)">
      <g id="Group_28" data-name="Group 28">
        <g id="Group_27" data-name="Group 27">
          <path id="Path_9" data-name="Path 9" d="M22.6,12.8a4.017,4.017,0,0,1-7.16,0H0v13.9H22.789a5.114,5.114,0,0,1,2.82-8.293V12.8H22.6ZM12.8,24.147a4.39,4.39,0,1,1,4.39-4.39A4.391,4.391,0,0,1,12.8,24.147Z" fill="#053eff"/>
        </g>
      </g>
      <g id="Group_30" data-name="Group 30">
        <g id="Group_29" data-name="Group 29">
          <circle id="Ellipse_2" data-name="Ellipse 2" cx="3.293" cy="3.293" r="3.293" transform="translate(23.414 20.12)" fill="#f3ab02"/>
        </g>
      </g>
      <g id="Group_32" data-name="Group 32">
        <g id="Group_31" data-name="Group 31">
          <circle id="Ellipse_3" data-name="Ellipse 3" cx="2.195" cy="2.195" r="2.195" transform="translate(16.829 8.78)" fill="#f3ab02"/>
        </g>
      </g>
      <g id="Group_34" data-name="Group 34">
        <g id="Group_33" data-name="Group 33">
          <path id="Path_10" data-name="Path 10" d="M4.8,3.293,3.41,10.976H15a4.024,4.024,0,0,1,8.049,0h4.39v7.375a5.2,5.2,0,0,1,.64.134L30,7.842Z" fill="#053eff"/>
        </g>
      </g>
    </g>
  </g>
</svg>
