<svg xmlns="http://www.w3.org/2000/svg" width="18.948" height="20" viewBox="0 0 18.948 20">
  <g id="Page-1" transform="translate(0 0)">
    <g id="_054---Cash" data-name="054---Cash" transform="translate(0 0)">
      <path id="Shape" d="M23.369,4.211H22.316V8.07a.7.7,0,0,1-.7.7H18.105a.7.7,0,0,1-.7-.7V4.211H16.351a.351.351,0,0,1-.248-.6L19.612.1a.351.351,0,0,1,.5,0l3.509,3.509a.351.351,0,0,1-.248.6Z" transform="translate(-10.386 0)" fill="#053eff"/>
      <path id="Shape-2" data-name="Shape" d="M12.351,19.263A.351.351,0,0,1,12,18.912V14.351a.351.351,0,0,1,.7,0v4.561A.351.351,0,0,1,12.351,19.263Z" transform="translate(-7.789 -9.088)" fill="#053eff"/>
      <path id="Shape-3" data-name="Shape" d="M6.351,25.263A.351.351,0,0,1,6,24.912V20.351a.351.351,0,1,1,.7,0v4.561A.351.351,0,0,1,6.351,25.263Z" transform="translate(-3.895 -12.983)" fill="#053eff"/>
      <path id="Shape-4" data-name="Shape" d="M40.351,19.263A.351.351,0,0,1,40,18.912V14.351a.351.351,0,0,1,.7,0v4.561A.351.351,0,0,1,40.351,19.263Z" transform="translate(-25.965 -9.088)" fill="#053eff"/>
      <path id="Shape-5" data-name="Shape" d="M46.351,25.263A.351.351,0,0,1,46,24.912V20.351a.351.351,0,1,1,.7,0v4.561A.351.351,0,0,1,46.351,25.263Z" transform="translate(-29.86 -12.983)" fill="#053eff"/>
      <path id="Shape-6" data-name="Shape" d="M39.7,42.592c0,.3-.336.632-.922.912a8.936,8.936,0,0,1-3.639.667,9.781,9.781,0,0,1-3.168-.478c1.907-.278,3.519-1.012,3.519-2.154V41.02C37.923,41.091,39.7,41.881,39.7,42.592Z" transform="translate(-20.754 -26.627)" fill="#053eff"/>
      <path id="Shape-7" data-name="Shape" d="M14,38.855a3.649,3.649,0,0,0,.621.367,9.649,9.649,0,0,0,3.94.737,9.649,9.649,0,0,0,3.94-.737,3.649,3.649,0,0,0,.621-.367v1.279c0,.745-1.951,1.579-4.561,1.579S14,40.879,14,40.134Z" transform="translate(-9.088 -25.222)" fill="#053eff"/>
      <path id="Shape-8" data-name="Shape" d="M18.561,31c2.611,0,4.561.834,4.561,1.579,0,.3-.336.632-.922.912a8.936,8.936,0,0,1-3.639.667,8.936,8.936,0,0,1-3.639-.667c-.586-.281-.922-.612-.922-.912C14,31.473,17.064,31,18.561,31Z" transform="translate(-9.088 -20.123)" fill="#053eff"/>
      <path id="Shape-9" data-name="Shape" d="M4.211,41.02v.519c0,1.141,1.612,1.876,3.518,2.154a9.78,9.78,0,0,1-3.167.478A8.936,8.936,0,0,1,.922,43.5C.336,43.224,0,42.892,0,42.592,0,41.881,1.779,41.091,4.211,41.02Z" transform="translate(0 -26.627)" fill="#053eff"/>
      <path id="Shape-10" data-name="Shape" d="M4.561,51.713C1.951,51.713,0,50.879,0,50.134V48.855a3.649,3.649,0,0,0,.621.367,9.649,9.649,0,0,0,3.94.737A9.645,9.645,0,0,0,8.5,49.222a3.832,3.832,0,0,0,.558-.324h.061v1.236C9.123,50.879,7.172,51.713,4.561,51.713Z" transform="translate(0 -31.713)" fill="#053eff"/>
      <path id="Shape-11" data-name="Shape" d="M32.561,51.713c-2.611,0-4.561-.834-4.561-1.579V48.9h.061a3.868,3.868,0,0,0,.561.325,9.649,9.649,0,0,0,3.939.734,9.649,9.649,0,0,0,3.94-.737,3.649,3.649,0,0,0,.621-.367v1.279C37.123,50.879,35.172,51.713,32.561,51.713Z" transform="translate(-18.175 -31.713)" fill="#053eff"/>
    </g>
  </g>
</svg>
